<svg width="34" height="34" viewBox="0 0 34 34" fill="none" xmlns="http://www.w3.org/2000/svg">
<path fill-rule="evenodd" clip-rule="evenodd" d="M22.6277 10.5642C22.8264 10.5643 23.017 10.6433 23.1575 10.7838C23.2981 10.9244 23.3771 11.115 23.3772 11.3137L23.3772 19.799C23.3808 19.8997 23.364 20 23.3279 20.094C23.2919 20.1881 23.2372 20.2739 23.1673 20.3463C23.0973 20.4188 23.0135 20.4764 22.9208 20.5158C22.8281 20.5552 22.7284 20.5755 22.6277 20.5755C22.527 20.5755 22.4273 20.5552 22.3346 20.5158C22.2419 20.4764 22.158 20.4188 22.0881 20.3463C22.0181 20.2739 21.9635 20.1881 21.9274 20.094C21.8913 20 21.8746 19.8996 21.8781 19.799L21.8781 13.1239L11.8443 23.1578C11.7036 23.2984 11.5129 23.3774 11.314 23.3774C11.1151 23.3774 10.9243 23.2984 10.7836 23.1578C10.643 23.0171 10.564 22.8263 10.564 22.6274C10.564 22.4285 10.643 22.2377 10.7836 22.0971L20.8175 12.0632L14.1424 12.0632C14.0417 12.0668 13.9414 12.05 13.8474 12.014C13.7533 11.9779 13.6675 11.9233 13.595 11.8533C13.5226 11.7834 13.4649 11.6995 13.4256 11.6068C13.3862 11.5141 13.3659 11.4144 13.3659 11.3137C13.3659 11.213 13.3862 11.1133 13.4256 11.0206C13.4649 10.9279 13.5226 10.8441 13.595 10.7741C13.6675 10.7042 13.7533 10.6495 13.8474 10.6135C13.9414 10.5774 14.0417 10.5606 14.1424 10.5642L22.6277 10.5642Z" fill="black"/>
</svg>
