<svg width="20" height="20" viewBox="0 0 20 20" fill="none" xmlns="http://www.w3.org/2000/svg">
<path d="M7 8L10.258 10.444C10.4598 10.5954 10.7114 10.6649 10.9624 10.6385C11.2133 10.6122 11.445 10.492 11.611 10.302L18 3" stroke="#8C7E6C" stroke-width="2" stroke-linecap="round"/>
<path d="M19 9.99996C19 11.8805 18.411 13.7138 17.3157 15.2424C16.2203 16.771 14.6736 17.918 12.8929 18.5225C11.1122 19.127 9.18685 19.1585 7.3873 18.6125C5.58776 18.0666 4.00442 16.9707 2.85967 15.4788C1.71492 13.9868 1.06627 12.1738 1.00481 10.2943C0.943352 8.41473 1.47218 6.56317 2.51702 4.99962C3.56187 3.43607 5.07023 2.23908 6.83027 1.57678C8.5903 0.914469 10.5136 0.820112 12.33 1.30696" stroke="#8C7E6C" stroke-width="2" stroke-linecap="round"/>
</svg>
