<svg width="192" height="68" viewBox="0 0 192 68" fill="none" xmlns="http://www.w3.org/2000/svg">
<g clip-path="url(#clip0_1_147)">
<path fill-rule="evenodd" clip-rule="evenodd" d="M0.000244141 33.4021L0.0454682 34.8832C0.0595347 35.0906 0.0947366 35.4507 0.119122 35.6382L0.259111 37.1555C0.513447 40.4237 0.772101 41.1413 1.49455 44.0769C1.61111 44.5506 1.75342 44.8704 2.35983 44.8704C3.10524 44.8704 3.27744 44.7578 3.27744 44.1291C3.27744 42.9968 2.96981 42.1586 2.73565 41.1377C2.50106 40.1151 2.35319 39.2006 2.20349 38.1367C2.05198 37.06 1.98215 35.9578 1.96831 34.8394C1.9639 34.4833 1.87743 34.1469 1.94131 33.7257C1.99751 33.3552 1.93137 32.9495 1.97294 32.5799C2.01035 32.2475 2.02922 31.8488 2.05727 31.4867C2.29896 28.3656 3.24679 24.8677 4.39484 22.0023C4.51647 21.6987 4.61089 21.4688 4.73757 21.167C5.09054 20.3257 5.51608 19.5733 5.91386 18.7651C6.17475 18.2351 6.47264 17.7709 6.77511 17.2699C7.40658 16.224 9.13593 13.7766 10.0611 12.8744L10.9352 11.9589C11.923 10.9731 12.9246 10.0162 14.0266 9.15722L15.0061 8.39046C16.0307 7.62406 17.0977 6.91403 18.1967 6.2545L19.3432 5.61081C20.2582 5.12059 21.1664 4.65972 22.1353 4.25468C23.8673 3.53068 25.6862 2.91765 27.5323 2.53273C28.1974 2.39404 28.8113 2.2861 29.5259 2.16751C30.1717 2.06032 30.954 2.00063 31.6425 1.92503C32.2016 1.86364 33.8946 1.81391 34.434 1.83C34.654 1.83658 34.676 1.87387 34.9115 1.87678C35.8974 1.88893 36.7615 1.93505 37.7348 2.06816C40.5639 2.45508 43.3047 2.97489 45.9247 4.0117C46.4251 4.20974 46.9001 4.37259 47.3954 4.59346C49.3103 5.44741 50.8713 6.28542 52.6451 7.46528C54.2522 8.53429 55.7161 9.79311 57.078 11.1522C57.2561 11.3299 57.4017 11.4767 57.5806 11.6536C58.3734 12.4376 59.7317 14.0803 60.3356 14.9654C60.8857 15.7717 61.4634 16.5571 61.9635 17.3962C62.2774 17.9229 62.6134 18.4447 62.8938 18.997C63.1811 19.5628 63.5147 20.1145 63.7651 20.7002C63.9721 21.184 64.1851 21.5917 64.3832 22.0892C64.5849 22.5956 64.7717 23.0378 64.9597 23.5635C65.7051 25.6483 66.2914 27.8136 66.5528 30.0843C66.6553 30.9752 66.7722 31.9697 66.767 32.8794C66.7649 33.2377 66.8112 33.4849 66.8112 33.8818C66.8112 34.4086 66.7663 34.7812 66.7686 35.3218L66.668 36.7476C66.6157 37.1565 66.5633 37.6676 66.5134 38.0759C66.3097 39.7401 65.413 43.4915 65.413 44.7833C65.413 45.3965 66.5581 45.5797 66.9504 45.0529C67.1935 44.7264 67.3599 43.5334 67.4667 43.0826C67.6753 42.2018 67.872 41.3106 68.0531 40.3974C69.0344 35.4469 68.8242 31.2211 67.7541 26.3128C67.5038 25.1646 67.1562 24.0361 66.8057 22.9858C66.3698 21.68 65.8804 20.4147 65.2674 19.201C64.7965 18.2686 64.3153 17.3499 63.7826 16.453C63.6412 16.2151 63.495 16.006 63.3613 15.7833L62.5026 14.5035C62.3508 14.2738 62.2214 14.1137 62.0604 13.8983C61.9747 13.7836 61.9308 13.7037 61.8403 13.5947C61.269 12.9066 60.7486 12.202 60.1362 11.5451L59.1098 10.4327C58.7326 10.0562 57.8621 9.16054 57.4856 8.87039L56.3355 7.88141C55.5883 7.21739 54.7423 6.58783 53.9128 6.02577C51.587 4.44996 49.1951 3.16183 46.5618 2.1549L45.3621 1.73865C41.8761 0.579262 38.2249 -3.05176e-05 34.2578 -3.05176e-05C30.4797 -3.05176e-05 26.874 0.588139 23.3503 1.76065C21.522 2.36905 19.8743 3.13303 18.1929 3.98329C16.0094 5.08748 13.7247 6.67387 11.896 8.29557C10.2497 9.75551 9.6301 10.3858 8.20486 11.9814C8.12043 12.0759 8.05248 12.1647 7.96642 12.2667C7.87852 12.3709 7.80906 12.4532 7.7282 12.5523L6.13551 14.6693C6.04999 14.7927 6.00165 14.8459 5.91642 14.974C4.62398 16.916 3.44723 18.9669 2.57823 21.1488C2.17633 22.1577 1.76193 23.2037 1.46065 24.2632C0.618223 27.226 0.000244141 30.2249 0.000244141 33.4021Z" fill="#594D3E"/>
<path fill-rule="evenodd" clip-rule="evenodd" d="M4.19495 51.7602C4.19495 52.3694 4.84509 53.1624 5.13039 53.5738C5.23447 53.7239 5.28979 53.8139 5.39966 53.9592L8.53167 57.7234C9.64595 58.8254 10.5105 59.6796 11.7792 60.6746L12.9469 61.5588C13.0978 61.6722 13.1913 61.7437 13.3535 61.8507C13.6399 62.0398 13.8821 62.2163 14.1576 62.4001L15.8617 63.4466C16.6545 63.8745 17.2964 64.2451 18.1188 64.639L19.5384 65.2718C23.5359 66.9184 27.6454 67.9816 32.0292 67.9816C33.0509 67.9816 33.6417 68.1445 33.6892 67.5015C33.7124 67.1886 33.7086 66.8157 33.6644 66.5242C33.5587 65.827 33.721 64.8678 33.4966 63.6829C33.2553 62.4092 32.6881 61.1742 32.0317 60.0864C31.8999 59.8679 31.7879 59.684 31.6447 59.4698L30.8 58.3068C29.9797 57.2807 29.2207 56.5303 27.852 56.1905C27.29 56.051 26.8109 55.9131 26.2705 55.7628C25.7739 55.6246 25.2573 55.445 24.7485 55.2758C23.3572 54.8133 21.0647 53.8615 19.7505 53.1994C19.4343 53.04 18.6307 52.5757 18.3341 52.6542C17.63 52.8406 18.0551 54.6019 18.5452 55.2743C19.1144 56.0552 20.8514 57.0751 21.7484 57.7465L22.8968 58.5627C22.4569 58.5627 21.7859 58.6025 21.3738 58.5563L18.4845 58.3874C17.9597 58.3896 16.1931 58.2569 15.686 58.1277C15.3052 58.0307 14.9439 57.8431 14.6092 57.6761C13.2941 57.0198 11.1179 55.6328 10.0609 54.5839L9.2519 53.8651C8.69435 53.3295 8.29704 52.8786 7.62138 52.4398C6.74602 51.8713 6.01185 51.673 4.89412 51.673C4.58756 51.673 4.47636 51.7602 4.19499 51.7602H4.19495Z" fill="#594D3E"/>
<path fill-rule="evenodd" clip-rule="evenodd" d="M45.2253 58.2575L45.408 58.1345C45.478 58.0902 45.5192 58.0622 45.5924 58.0133L48.1621 56.2171C48.3003 56.1252 48.376 56.0583 48.5198 55.9636C48.9562 55.6762 49.1887 55.484 49.5136 55.0803C50.223 54.1989 50.4447 52.3707 49.726 52.3707C49.3559 52.3707 48.7691 52.7108 48.3421 52.9082C47.4083 53.34 46.6995 53.7005 45.7002 54.1091C45.2264 54.3029 44.778 54.4764 44.2894 54.6635C43.8094 54.8474 43.3319 54.9987 42.8602 55.1559C39.5904 56.2452 39.2994 55.6082 37.1988 58.1838C37.1181 58.2828 37.0732 58.3536 36.992 58.4571C36.0939 59.6021 35.1616 61.2031 34.8724 62.6211C34.8148 62.9037 34.7701 63.1329 34.7345 63.4428C34.6283 64.3665 34.6024 65.2561 34.6078 66.1943C34.6098 66.545 34.5536 66.7383 34.5613 67.1116C34.5789 67.9645 35.462 67.6343 36.3988 67.5892L40.2841 67.2803C41.5739 67.1349 43.6222 66.6492 44.8472 66.2961C45.5686 66.0882 46.269 65.8727 46.935 65.6324C47.2832 65.5068 47.6025 65.3845 47.947 65.2469C48.9576 64.8433 49.8814 64.4378 50.848 63.9558C51.0252 63.8675 51.1295 63.7916 51.2987 63.7079C53.0787 62.8276 55.7888 60.9572 57.2959 59.6197L57.6682 59.2937C58.0059 58.9815 59.014 58.0605 59.2452 57.7713C59.3443 57.6473 59.4724 57.5357 59.5903 57.4181C60.036 56.9733 60.2643 56.6665 60.5945 56.3271C60.7343 56.1836 60.7941 56.1025 60.9234 55.9576C60.9997 55.872 61.0134 55.8484 61.0805 55.7655C61.1423 55.6891 61.1832 55.6612 61.2486 55.5845L62.7735 53.6177C63.7477 52.2052 64.5835 51.4986 62.7473 51.4986C61.8025 51.4986 60.9958 51.8037 60.4226 52.1874C60.0851 52.4133 59.8722 52.6017 59.5903 52.8831L58.2362 54.148C58.1548 54.2202 58.1197 54.2715 58.0347 54.3394L57.1922 55.0249C56.5485 55.5375 56.0987 55.8489 55.4151 56.3039C53.7914 57.3848 53.0312 57.6934 50.9095 57.8688C49.9786 57.9457 49.0995 58.0971 48.153 58.1267C47.7217 58.1402 47.1776 58.2201 46.7523 58.2552C46.3049 58.2921 45.6908 58.2575 45.2253 58.2575L45.2253 58.2575Z" fill="#594D3E"/>
<path fill-rule="evenodd" clip-rule="evenodd" d="M32.9032 51.0189C32.9032 50.332 33.6061 49.6235 34.3015 49.6235C34.8374 49.6235 35.5686 50.2258 35.5686 51.0189C35.5686 51.5661 34.8978 52.1962 34.3452 52.1962H34.1267C33.5999 52.1962 32.9032 51.5469 32.9032 51.0189H32.9032ZM15.8618 28.6055C15.8618 29.7265 16.0038 30.7966 16.2004 31.7124C16.3941 32.6147 16.6459 33.4406 17.0128 34.2594C17.3528 35.0183 17.7238 35.7767 18.1362 36.496C18.9143 37.8531 19.8919 39.2031 20.9636 40.346L24.1097 43.4856C24.6251 43.9386 25.67 45.0449 26.3488 45.0449C27.0664 45.0449 27.639 44.0228 26.6175 43.2069C25.997 42.7113 25.1283 42.0246 24.5678 41.4587C24.4105 41.2998 24.3326 41.2226 24.1575 41.0833C23.9148 40.89 23.6221 40.5576 23.3884 40.3245L22.6451 39.5402C21.5464 38.3548 20.5572 37.0176 19.7795 35.5974L18.9936 34.0705C18.4578 33.0105 17.7407 30.7732 17.7407 29.2159C17.7407 26.7717 18.3451 24.6653 19.7316 22.8304C20.5323 21.7707 21.566 20.878 22.7517 20.2191C24.667 19.155 26.7858 19.0579 28.9364 19.6567C30.4176 20.0691 31.6135 20.8534 32.6742 21.9007L33.3648 22.6941C33.7088 23.1364 34.3241 23.5342 34.8585 23.1001C35.2873 22.7519 35.2119 22.1183 37.4211 20.6428C40.452 18.6184 44.0717 18.821 46.9488 20.9988C47.4072 21.3458 47.7217 21.6566 48.1209 22.053C48.2373 22.1686 48.2605 22.2234 48.3613 22.3364C48.4735 22.462 48.5151 22.5011 48.6214 22.6438C48.7965 22.8787 48.9301 23.0534 49.0969 23.303C50.0154 24.6779 50.7311 26.5531 50.7311 28.3874C50.7311 30.1195 50.5415 31.0753 50.0266 32.6118C49.037 35.5649 47.3833 38.3228 45.4934 40.69C44.7215 41.6568 43.9012 42.5897 43.0299 43.4643C41.8853 44.6131 40.3497 45.8675 39.0644 46.8327C38.5548 47.2154 37.0044 48.4025 36.3989 48.4025C35.7411 48.4025 35.4845 47.792 34.1267 47.792C33.3978 47.792 32.485 48.1388 31.998 48.6765C31.9249 48.7571 31.9285 48.7799 31.8435 48.8712C31.752 48.9693 31.7443 48.9613 31.6613 49.0818C31.3196 49.5772 31.068 50.0698 31.068 50.7572C31.068 52.5299 32.281 53.9022 34.0333 54.0365C34.9032 54.1032 35.8109 53.7313 36.3012 53.2761C36.5892 53.0086 36.8015 52.7673 36.9885 52.3922C37.1746 52.0191 37.2825 51.669 37.3716 51.2047C37.4533 50.7788 37.5102 50.3689 37.7341 50.0402C37.861 49.854 37.9734 49.7957 38.1554 49.6757C39.5607 48.7493 40.8227 47.6717 42.1295 46.6211L44.1667 44.7732C44.3083 44.6333 44.4176 44.521 44.5591 44.3799C45.7891 43.1524 47.1673 41.5896 48.1783 40.1862C48.8414 39.2658 49.457 38.3446 50.0408 37.379C50.4306 36.7341 50.8063 35.9986 51.0995 35.2959C52.0949 32.9098 52.61 31.1129 52.61 28.213C52.61 26.6995 52.0925 24.9904 51.5762 23.9684C51.2065 23.2363 50.8398 22.5702 50.3631 21.9085C50.0812 21.5173 49.7947 21.1507 49.453 20.8109C48.1434 19.5082 47.9193 19.4124 46.4574 18.5241C45.3933 17.8774 43.4647 17.3987 42.2541 17.3987C39.4386 17.3987 37.2374 18.3159 35.1252 20.0086C34.1985 20.7512 34.3767 20.8886 33.4145 20.0717C33.2909 19.9667 33.1777 19.8814 33.0468 19.7845C32.8941 19.6715 32.8054 19.5881 32.6499 19.483C32.3692 19.2933 32.1431 19.1172 31.8409 18.9385C28.9975 17.2576 25.7941 16.8662 22.6658 18.2147C22.5632 18.2589 22.5315 18.283 22.4287 18.3269L21.9932 18.5464C20.8587 19.1811 19.7476 19.9552 18.927 20.9809C18.867 21.0559 18.8255 21.0897 18.756 21.1591C18.5223 21.3921 18.3302 21.669 18.1275 21.9272L17.8363 22.3344C16.5781 24.1832 15.8618 26.2943 15.8618 28.6054L15.8618 28.6055Z" fill="#594D3E"/>
<path fill-rule="evenodd" clip-rule="evenodd" d="M142.318 29.3032C142.318 28.0635 142.806 26.8299 143.661 25.9782C143.89 25.7499 144.018 25.6169 144.292 25.4303C144.803 25.0823 145.313 24.8457 145.94 24.7204C147.218 24.4652 148.568 24.6572 149.624 25.3693C152.215 27.1159 152.258 30.7979 150.303 32.7372C149.874 33.1629 149.485 33.4202 148.902 33.6934C148.001 34.1146 146.89 34.1782 145.896 33.974C145.185 33.8281 144.478 33.4649 143.944 33C142.874 32.068 142.318 30.738 142.318 29.3032L142.318 29.3032ZM140.701 26.992C140.701 28.7877 140.616 29.7979 141.128 31.537C141.569 33.0349 142.604 34.3836 144.022 35.0151C145.159 35.5212 145.995 35.5824 147.299 35.5824C148.227 35.5824 149.044 35.3164 149.721 35.0343L150.682 34.5106L151.876 33.4352C152.678 32.5814 153.329 30.9092 153.329 29.652C153.329 28.3583 153.275 27.8645 152.799 26.6924C152.669 26.3735 152.479 26.0458 152.289 25.7622L151.837 25.1667C151.76 25.0719 151.752 25.047 151.658 24.9526C151.137 24.4267 150.701 24.0664 150.008 23.7215C148.125 22.7841 145.755 22.931 144.013 24.0183L143.18 24.6695C142.968 24.8632 142.216 25.857 142.186 26.2071H142.099C142.099 25.8193 142.252 24.7011 142.328 24.3426C142.455 23.7443 142.647 23.282 142.9 22.7762C143.039 22.4971 143.563 21.7622 143.796 21.5782C144.216 21.2479 144.514 20.9573 145.076 20.7182C145.594 20.4977 146.029 20.3325 146.668 20.2145C147.669 20.0296 149.485 19.9682 150.551 19.8155C150.988 19.753 152.16 19.7014 152.499 19.6226V18.14L150.708 18.2716C150.558 18.279 150.29 18.3031 150.108 18.3266L148.347 18.4881C147.45 18.5322 146.308 18.6399 145.523 18.8972C144.799 19.1346 144.325 19.3176 143.751 19.701C141.476 21.2206 140.701 24.1718 140.701 26.992L140.701 26.992Z" fill="#594D3E"/>
<path fill-rule="evenodd" clip-rule="evenodd" d="M77.5166 33.8382H74.9385V27.6025H77.7351C79.2252 27.6025 80.8194 27.9622 81.5073 29.2015C81.9895 30.0702 82.038 31.5487 81.5292 32.3482C81.2784 32.7424 80.9757 33.0108 80.5781 33.2305C79.8065 33.6568 78.7091 33.8382 77.5166 33.8382H77.5166ZM78.2157 26.1199H74.9385V20.6692C76.4243 20.6692 78.7095 20.523 79.8909 21.1778C81.1214 21.8598 81.1479 23.6022 80.7674 24.6982C80.6294 25.0954 80.4976 25.2145 80.2374 25.4775C79.827 25.8923 79.0347 26.1199 78.2157 26.1199V26.1199ZM73.3218 35.3208H77.9098C79.4217 35.3208 80.9897 34.9377 81.8955 34.3272C83.3285 33.3613 83.5466 32.0054 83.5466 30.3497C83.5466 29.3778 83.1775 28.5745 82.7303 28.0247C81.964 27.0829 81.0247 26.8823 80.8812 26.6868C81.0914 26.6379 81.4174 26.3486 81.5871 26.2139C82.1905 25.7348 82.629 24.5953 82.629 23.678C82.629 22.2026 82.4301 20.9931 81.1352 20.1104C80.2816 19.5285 78.9831 19.1866 77.5603 19.1866H73.3218V35.3208Z" fill="#594D3E"/>
<path fill-rule="evenodd" clip-rule="evenodd" d="M87.086 29.4776C87.086 27.3305 88.0976 25.8495 89.8235 25.0145C90.7101 24.5856 91.781 24.5264 92.7482 24.6992C93.0832 24.7591 93.3814 24.846 93.6663 24.9603C94.5065 25.2972 94.5766 25.473 95.1017 25.8826C95.9078 26.5116 96.5243 28.0665 96.5243 29.1723C96.5243 30.4746 96.2477 31.5327 95.4222 32.4767C95.1519 32.7858 95.3331 32.6391 94.9888 32.9163C94.9208 32.9711 94.8944 33.0045 94.8267 33.0598C94.5185 33.3113 94.0993 33.5602 93.7279 33.7074C92.1667 34.326 90.5326 34.2098 89.131 33.28C87.9652 32.5066 87.086 31.1331 87.086 29.4776H87.086ZM87.1734 25.3786V23.3728H85.5566V39.5069H87.1734V33.3149C87.2764 33.3902 87.6079 33.8757 87.9466 34.1567C88.4424 34.568 88.2633 34.4922 88.8958 34.8665C89.9495 35.4899 90.9122 35.5824 92.1547 35.5824C93.4333 35.5824 94.9813 34.9895 95.9429 34.1737C96.7129 33.5204 97.1146 33.006 97.573 32.0939C98.7341 29.7838 98.2755 26.7998 96.3604 24.8881C95.3557 23.8851 93.7351 23.1111 92.1984 23.1111C90.7185 23.1111 89.5431 23.284 88.4088 24.1259C87.5261 24.7811 87.3593 25.2427 87.1734 25.3786Z" fill="#594D3E"/>
<path fill-rule="evenodd" clip-rule="evenodd" d="M87.96 48.6206C87.96 46.4735 88.9716 44.9925 90.6976 44.1575C91.5842 43.7286 92.655 43.6694 93.6222 43.8422C94.2214 43.9493 94.8246 44.1801 95.3192 44.5034C96.5791 45.3269 97.3983 46.785 97.3983 48.3153C97.3983 49.6176 97.1217 50.6756 96.2962 51.6197C96.1835 51.7485 96.1476 51.8266 96.0109 51.9454C95.5872 52.3136 95.1328 52.64 94.6019 52.8504C94.3059 52.9677 94.0917 53.0401 93.7376 53.1216C90.8979 53.7756 87.96 51.6934 87.96 48.6206L87.96 48.6206ZM88.0474 44.5216V42.5157H86.4307V58.6499H88.0474V52.4579C88.1618 52.5415 88.2936 52.7621 88.4075 52.8834C88.4887 52.9698 88.5172 52.9868 88.5962 53.0876C88.8086 53.3588 89.4359 53.8119 89.7698 54.0095C90.8235 54.6329 91.7862 54.7254 93.0288 54.7254C94.1379 54.7254 95.5291 54.2432 96.3937 53.6356L97.213 52.9706C97.4824 52.699 97.6622 52.4828 97.8978 52.1714C98.1365 51.8557 98.269 51.5911 98.447 51.2369C99.2801 49.5794 99.2589 47.4354 98.4764 45.7569C97.8529 44.4194 96.7939 43.469 95.4764 42.8203C93.8617 42.0254 91.3572 42.046 89.7929 42.9495C88.4319 43.7356 88.3204 44.322 88.0474 44.5216Z" fill="#594D3E"/>
<path fill-rule="evenodd" clip-rule="evenodd" d="M132.573 24.5937C133.442 24.5937 134.355 24.8612 135.029 25.2829C135.406 25.5191 135.348 25.5085 135.632 25.7274C136.267 26.215 137.097 27.6544 137.162 28.431H128.029C128.163 28.1519 128.119 27.8275 128.597 26.9042C129.178 25.7811 130.347 24.9558 131.63 24.6987C131.879 24.6489 132.309 24.5937 132.573 24.5937V24.5937ZM126.369 28.9543C126.369 29.945 126.375 30.5492 126.743 31.5021C127.117 32.4691 127.463 33.0334 128.215 33.7837C129.226 34.7927 130.824 35.5824 132.399 35.5824C133.465 35.5824 133.985 35.5365 134.94 35.1532C136.096 34.6893 136.955 33.9568 137.674 32.9977C138.235 32.2495 138.246 31.9059 138.516 31.3963H136.768C136.586 32.1786 135.642 33.0442 134.947 33.4595C133.11 34.5565 130.775 34.1951 129.197 32.6288C128.615 32.0509 128.197 31.1932 128.053 30.3693C128.022 30.1937 128.021 30.0652 127.985 29.9137L138.727 29.9058C138.866 29.8536 138.866 29.6225 138.866 29.3032C138.866 28.2188 138.693 27.4725 138.254 26.5991C138.022 26.1364 137.7 25.6592 137.347 25.2804C136.939 24.8421 136.717 24.6099 136.2 24.245C135.375 23.6619 133.993 23.1111 132.879 23.1111C131.738 23.1111 130.885 23.1849 129.908 23.6778C129.427 23.9203 128.975 24.1745 128.566 24.5194C128.491 24.5829 128.461 24.6278 128.389 24.6914C128.296 24.7744 128.263 24.7776 128.17 24.8649L127.843 25.2364C127.065 26.0309 126.369 27.7699 126.369 28.9543L126.369 28.9543Z" fill="#594D3E"/>
<path fill-rule="evenodd" clip-rule="evenodd" d="M165.171 53.2428C163.33 53.2428 161.725 52.158 160.917 50.5541C160.017 48.7665 160.444 46.4689 161.838 45.0772C162.23 44.6862 162.657 44.4133 163.189 44.1576C164.128 43.7067 165.117 43.6617 166.136 43.8629C167.632 44.1581 168.756 45.1385 169.395 46.4979C170.115 48.0295 169.841 50.1553 168.76 51.5046C168.322 52.0508 167.783 52.5288 167.106 52.8195C166.817 52.9436 166.541 53.0363 166.22 53.113C165.976 53.1715 165.462 53.2428 165.171 53.2428ZM158.791 48.2281C158.791 48.9566 158.777 49.446 158.984 50.1723C159.187 50.8854 159.316 51.1547 159.636 51.7454C159.937 52.3004 160.513 52.9382 161.019 53.3304C161.453 53.6667 161.876 53.9431 162.405 54.1713C163.813 54.7783 165.462 54.8961 166.972 54.5169C167.417 54.4052 167.76 54.2167 168.117 54.0033C168.587 53.7233 169.059 53.2681 169.42 52.8609C169.539 52.7264 169.671 52.5022 169.802 52.4143V54.4637H171.419V42.5157H169.802V44.5652C169.534 44.3856 168.315 42.2541 165.476 42.2541C164.093 42.2541 163.65 42.2913 162.368 42.8147C162.043 42.9473 161.683 43.1562 161.419 43.3504C159.856 44.4979 158.791 46.2203 158.791 48.2281V48.2281Z" fill="#594D3E"/>
<path fill-rule="evenodd" clip-rule="evenodd" d="M174.696 34.0998C174.033 34.0998 173.367 33.9189 172.799 33.6825C171.752 33.2471 170.952 32.4223 170.443 31.4111C169.542 29.6235 169.969 27.3259 171.364 25.9342C173.902 23.4015 178.49 24.6636 179.201 28.252C179.515 29.8357 179.131 31.5603 178.007 32.6944C177.636 33.0686 177.152 33.4529 176.632 33.6765C176.343 33.8006 176.066 33.8933 175.746 33.97C175.502 34.0285 174.988 34.0998 174.696 34.0998V34.0998ZM168.317 29.0851C168.317 29.8136 168.302 30.303 168.51 31.0293C168.723 31.7764 168.999 32.4391 169.459 33.0471L170.545 34.1874C170.697 34.3052 170.8 34.3856 170.973 34.5011C171.882 35.1078 173.189 35.5824 174.39 35.5824C175.334 35.5824 175.56 35.6092 176.497 35.3739C177.08 35.2275 177.886 34.7812 178.312 34.3503L178.945 33.7179C179.065 33.5834 179.196 33.3592 179.328 33.2713V35.3208H180.945V23.3728H179.328V25.4222L178.531 24.561C177.648 23.6796 176.406 23.1111 175.002 23.1111C173.619 23.1111 173.175 23.1483 171.893 23.6717C171.202 23.9539 170.636 24.3941 170.119 24.9099C169.029 25.9974 168.317 27.4878 168.317 29.0851L168.317 29.0851Z" fill="#594D3E"/>
<path fill-rule="evenodd" clip-rule="evenodd" d="M107.274 53.2428C104.77 53.2428 102.554 51.1383 102.554 48.6642V48.2717C102.554 45.812 104.726 43.7367 107.186 43.7367C109.372 43.7367 111.351 45.2375 111.779 47.395C112.093 48.9787 111.708 50.7033 110.584 51.8374C110.213 52.2115 109.729 52.5959 109.209 52.8195C108.642 53.0631 107.922 53.2428 107.274 53.2428ZM100.894 48.2281C100.894 49.592 100.957 49.9931 101.48 51.2622C101.983 52.4801 103.282 53.6428 104.508 54.1713C105.916 54.7783 107.565 54.8961 109.075 54.5169C109.52 54.4052 109.863 54.2167 110.22 54.0033C110.69 53.7233 111.162 53.2681 111.523 52.8609C111.642 52.7264 111.774 52.5022 111.905 52.4143V54.4637H113.522V42.5157H111.905V44.5652C111.637 44.3856 110.418 42.2541 107.579 42.2541C106.196 42.2541 105.753 42.2913 104.471 42.8147C104.146 42.9473 103.786 43.1562 103.522 43.3504C102.718 43.9405 102.246 44.437 101.722 45.304C101.266 46.0582 100.894 47.2049 100.894 48.2281L100.894 48.2281Z" fill="#594D3E"/>
<path fill-rule="evenodd" clip-rule="evenodd" d="M106.4 34.0998C105.484 34.0998 104.508 33.7731 103.769 33.2802C102.559 32.4726 101.68 31.0034 101.68 29.5212V29.1287C101.68 27.0349 103.268 25.2012 105.262 24.7235C108.116 24.0402 111.031 26.146 111.031 29.3032C111.031 29.9606 110.842 30.81 110.638 31.2654C109.873 32.9718 108.343 34.0998 106.4 34.0998L106.4 34.0998ZM100.02 29.0851C100.02 30.5624 100.158 31.2983 100.865 32.6024C101.024 32.8961 101.617 33.6498 101.845 33.8488L102.248 34.1874C103.299 35.001 104.679 35.5824 106.094 35.5824C107.657 35.5824 108.548 35.4882 109.809 34.5367L110.649 33.718C110.768 33.5834 110.9 33.3592 111.031 33.2713V35.3208H112.648V23.3728H111.031V25.4223C110.902 25.336 110.289 24.4173 109.309 23.8266C107.999 23.0365 106.22 22.9527 104.699 23.2888C103.588 23.5341 102.611 24.1228 101.822 24.9099C100.733 25.9971 100.02 27.4895 100.02 29.0852V29.0851Z" fill="#594D3E"/>
<path fill-rule="evenodd" clip-rule="evenodd" d="M135.283 54.4637H136.943C136.98 54.3261 137.073 54.2611 137.155 54.1525L142.355 47.2625C142.511 47.054 142.65 46.8843 142.811 46.6707C142.971 46.4579 143.099 46.2879 143.26 46.0728C143.409 45.8747 144.073 44.953 144.197 44.8705V54.4637H145.813V42.5157H144.153C144.116 42.6527 142.429 44.8431 142.367 44.9201L137.836 50.9067C137.674 51.1218 137.543 51.2962 137.386 51.5048C137.276 51.6514 137.022 52.0268 136.899 52.109V42.5157H135.283V54.4637Z" fill="#594D3E"/>
<path fill-rule="evenodd" clip-rule="evenodd" d="M184.746 27.0793V26.8176C184.746 25.4426 185.972 24.8554 187.368 24.8554H190.383V29.0415C189.158 29.0415 186.613 29.1869 185.698 28.6585C185.118 28.3237 184.746 27.8182 184.746 27.0793ZM183.086 26.7304C183.086 27.8566 183.237 28.4085 183.972 29.2907C184.317 29.705 185.426 30.3386 185.926 30.3497C185.913 30.5052 185.826 30.595 185.751 30.6986L182.518 35.3208H184.397L185.437 33.83C185.515 33.7159 185.564 33.6332 185.646 33.5152L186.494 32.3121C186.637 32.0973 186.774 31.9137 186.922 31.6924C187.034 31.5239 187.681 30.5241 187.805 30.5241H190.383V35.3208H192V23.3728H186.887C184.936 23.3728 183.086 24.8259 183.086 26.7304Z" fill="#594D3E"/>
<path fill-rule="evenodd" clip-rule="evenodd" d="M155.601 35.3208H157.218V30.0009H164.384V35.3208H166.001V23.3728H164.384V28.5183H157.218V23.3728H155.601V35.3208Z" fill="#594D3E"/>
<path fill-rule="evenodd" clip-rule="evenodd" d="M73.3655 54.4637H74.9822V43.9983H82.061V54.4637H83.6777V42.5157H73.3655V54.4637Z" fill="#594D3E"/>
<path fill-rule="evenodd" clip-rule="evenodd" d="M148.566 54.4638H150.183V48.8822C150.362 49.0016 153.282 52.0423 153.41 52.2028C153.671 52.5293 154.126 52.9022 154.411 53.2096L155.437 54.2792C155.675 54.5275 155.63 54.4663 156.082 54.4639C156.635 54.4611 157.189 54.4638 157.742 54.4638C157.544 54.1682 156.152 52.856 155.719 52.34L152.532 49.0676C152.397 48.9336 152.292 48.8318 152.159 48.6978L151.8 48.2717L154.04 46.1468C154.301 45.896 154.525 45.6608 154.782 45.4047L156.993 43.2506C157.225 43.0657 157.584 42.7516 157.742 42.5158L155.773 42.5125C155.504 42.5269 155.441 42.6979 155.088 43.0499C154.947 43.1904 154.839 43.3057 154.695 43.4433C154.599 43.5363 154.574 43.5385 154.478 43.6188L153.449 44.6415C153.298 44.7927 150.405 47.6437 150.183 47.7921V42.5158H148.566V54.4638L148.566 54.4638Z" fill="#594D3E"/>
<path fill-rule="evenodd" clip-rule="evenodd" d="M116.231 54.4638H117.848V48.8822C117.988 48.9758 118.537 49.5266 118.665 49.68C118.82 49.8641 118.892 49.9459 119.061 50.1141C119.21 50.2628 119.327 50.3796 119.476 50.5283C119.761 50.8131 119.978 51.0738 120.262 51.3568C120.549 51.6429 120.823 51.8875 121.075 52.2028C121.278 52.4566 121.634 52.7696 121.879 53.0139C121.953 53.0875 122.006 53.1344 122.076 53.2096L123.102 54.2792C123.34 54.5276 123.295 54.4663 123.747 54.4639C124.3 54.4611 124.854 54.4638 125.407 54.4638C125.209 54.1682 123.817 52.8561 123.384 52.34L122.251 51.2039C121.833 50.7309 121.136 50.0841 120.95 49.8416C120.63 49.4229 120.052 48.9865 119.646 48.4837C119.572 48.3927 119.53 48.3686 119.465 48.2717C119.751 48.0806 121.196 46.5656 121.488 46.3223C121.928 45.9546 123.512 44.3852 123.933 43.9657C124.154 43.7449 124.428 43.4338 124.658 43.2506C124.89 43.0657 125.249 42.7516 125.407 42.5158C124.883 42.5158 124.359 42.5166 123.834 42.5158C123.129 42.5147 123.393 42.4106 122.753 43.0499C122.612 43.1904 122.504 43.3057 122.36 43.4433L121.923 43.8348C121.564 44.1936 118.109 47.6178 117.848 47.7921V42.5158H116.231V54.4638L116.231 54.4638Z" fill="#594D3E"/>
<path fill-rule="evenodd" clip-rule="evenodd" d="M115.008 27.3409C115.008 27.8127 115.173 28.4123 115.307 28.7432C115.472 29.1507 115.712 29.5064 116.002 29.794C116.329 30.1192 116.577 30.2838 117.018 30.4805C117.841 30.8482 118.603 30.7858 119.508 30.7858C120.008 30.7858 122.248 30.6785 122.48 30.5677V35.3208H124.096V23.3728H122.48V29.1287C122.196 29.1287 121.759 29.1987 121.456 29.2414C120.426 29.3869 118.043 29.3651 117.335 28.8559C116.724 28.4166 116.624 27.6937 116.624 26.9048V23.3728H115.008V27.3409V27.3409Z" fill="#594D3E"/>
<path fill-rule="evenodd" clip-rule="evenodd" d="M125.801 43.9983H128.947V54.4637H130.563V43.9983H133.666V42.5157H125.801V43.9983Z" fill="#594D3E"/>
<path fill-rule="evenodd" clip-rule="evenodd" d="M15.7307 57.3853C15.3474 56.8141 14.9402 56.1222 14.4304 55.6741L12.0058 53.5151C11.8766 53.3831 11.7549 53.2906 11.6104 53.1684C10.78 52.4662 9.70606 52.3271 8.60828 52.3271C8.67094 52.4204 8.69524 52.4267 8.76954 52.515C9.24059 53.0745 9.74856 53.5213 10.2793 54.0171C11.3097 54.9797 14.651 57.3613 15.7307 57.3853Z" fill="#594D3E"/>
<path fill-rule="evenodd" clip-rule="evenodd" d="M52.5226 57.2981C52.7786 57.4692 52.6333 57.5491 53.703 56.9935C54.6329 56.5104 56.6826 55.0191 57.4932 54.1914L58.0614 53.6683C58.1545 53.5863 58.1858 53.5811 58.2801 53.494L59.4265 52.4143C59.2542 52.4104 59.2343 52.3707 58.9022 52.3707C57.1277 52.3707 56.6375 53.1522 55.8063 53.8161L55.2203 54.3215C54.634 54.8912 53.5103 55.7503 53.073 56.4084L52.5226 57.2981H52.5226Z" fill="#594D3E"/>
<path fill-rule="evenodd" clip-rule="evenodd" d="M11.9292 52.7631L13.3822 54.1039C13.4464 54.1693 13.4886 54.2179 13.5588 54.2765L14.8568 55.4231C14.8357 54.4759 13.8989 52.6759 12.3662 52.6759C12.1955 52.6759 12.0415 52.7093 11.9292 52.7631H11.9292Z" fill="#594D3E"/>
<path fill-rule="evenodd" clip-rule="evenodd" d="M53.2217 55.4667C53.3214 55.4401 53.6711 55.1112 53.8003 54.9976C54.3512 54.5135 55.3293 53.5328 55.8499 53.1185C55.9795 53.0154 56.1468 52.8921 56.193 52.7195C55.2541 52.7195 54.8701 52.8027 54.1501 53.5152C53.2863 54.3701 53.289 55.3266 53.2217 55.4667Z" fill="#594D3E"/>
</g>
<defs>
<clipPath id="clip0_1_147">
<rect width="192" height="68" fill="white"/>
</clipPath>
</defs>
</svg>
